<?xml version="1.0" standalone="no"?>
<!DOCTYPE svg PUBLIC "-//W3C//DTD SVG 20010904//EN"
 "http://www.w3.org/TR/2001/REC-SVG-20010904/DTD/svg10.dtd">
<svg version="1.0" xmlns="http://www.w3.org/2000/svg"
 width="1582.000000pt" height="678.000000pt" viewBox="0 0 1582.000000 678.000000"
 preserveAspectRatio="xMidYMid meet">

<g transform="translate(0.000000,678.000000) scale(0.100000,-0.100000)"
fill="#000000" stroke="none">
<path d="M4365 6686 c-47 -15 -99 -41 -123 -62 -35 -30 -122 -94 -129 -94 -3
0 -36 -30 -72 -67 -72 -74 -89 -114 -100 -228 l-6 -60 -105 2 c-58 1 -285 3
-505 4 -339 2 -436 -2 -640 -20 -132 -12 -292 -26 -356 -31 -64 -5 -138 -14
-165 -19 -27 -5 -101 -15 -164 -21 -63 -6 -138 -18 -166 -26 -28 -8 -59 -14
-69 -14 -10 0 -41 -6 -69 -14 -28 -8 -82 -19 -121 -25 -38 -6 -88 -15 -110
-20 -59 -13 -443 -139 -490 -160 -11 -5 -42 -17 -70 -26 -85 -29 -233 -105
-294 -151 -106 -80 -161 -164 -161 -248 0 -53 32 -142 66 -182 100 -116 196
-204 225 -204 9 0 23 -8 33 -18 9 -11 41 -27 70 -37 45 -16 57 -16 70 -6 25
21 19 38 -15 45 -41 8 -58 32 -59 81 0 72 18 113 77 170 30 30 60 52 66 48 5
-3 7 -1 3 5 -8 13 33 43 48 35 6 -3 8 -3 4 1 -6 7 85 76 99 76 3 0 29 15 57
34 67 44 156 86 291 136 61 23 130 50 155 60 61 25 252 80 320 91 30 5 66 14
80 19 14 6 50 15 80 20 30 5 89 17 130 25 69 14 219 33 570 70 74 8 225 24
335 36 118 13 269 23 367 23 197 1 198 0 118 -87 -27 -30 -50 -60 -50 -66 0
-6 -4 -11 -9 -11 -4 0 -30 -28 -57 -62 -65 -85 -156 -194 -202 -243 -20 -22
-53 -63 -72 -90 -19 -28 -39 -54 -46 -60 -6 -5 -24 -28 -40 -50 -16 -22 -33
-45 -39 -52 -5 -6 -32 -43 -60 -83 -68 -97 -138 -194 -145 -200 -3 -3 -11 -16
-18 -30 -6 -14 -20 -36 -31 -50 -40 -52 -168 -236 -174 -250 -4 -8 -32 -55
-62 -104 -30 -49 -55 -91 -55 -93 0 -2 -15 -25 -32 -51 -52 -75 -221 -391
-260 -487 -10 -22 -31 -71 -49 -110 -17 -38 -45 -106 -61 -150 -64 -174 -91
-453 -54 -565 29 -89 48 -133 73 -167 13 -17 23 -35 23 -40 0 -21 86 -105 129
-126 61 -31 130 -42 165 -26 39 18 28 39 -39 73 -79 41 -111 89 -132 200 -16
79 -16 90 1 168 10 46 22 106 28 133 31 149 126 385 216 535 12 19 37 67 57
105 34 67 83 148 136 226 102 153 183 265 250 347 25 32 64 82 86 113 23 31
48 62 55 70 8 8 51 59 95 114 45 55 92 112 105 126 23 26 52 60 201 233 44 50
102 116 130 146 29 30 62 69 75 85 24 32 247 266 405 426 54 54 104 96 109 93
7 -4 8 -2 4 4 -4 7 7 18 25 28 29 14 46 15 156 5 69 -7 136 -16 149 -22 14 -5
36 -9 49 -9 30 0 186 -45 250 -72 130 -54 237 -172 250 -273 8 -61 -8 -153
-36 -213 -64 -131 -189 -285 -328 -404 -135 -115 -132 -113 -216 -169 -178
-117 -354 -214 -475 -263 -36 -15 -83 -35 -105 -45 -88 -40 -113 -50 -175 -69
-123 -38 -175 -51 -280 -67 -58 -9 -114 -21 -125 -27 -11 -6 -87 -13 -170 -16
-163 -5 -196 -14 -246 -69 -43 -46 -59 -87 -59 -153 0 -64 6 -74 83 -137 20
-16 155 -26 194 -14 18 5 51 28 75 50 23 23 47 41 54 41 7 0 38 14 69 30 31
17 64 30 72 30 8 0 11 5 7 12 -4 6 -3 8 4 4 6 -3 32 1 58 10 26 9 73 20 103
25 31 4 83 12 116 18 102 16 422 23 518 11 99 -12 296 -60 375 -92 57 -22 125
-79 147 -122 8 -16 15 -50 15 -77 0 -42 -6 -56 -51 -116 -69 -92 -265 -280
-342 -327 -18 -11 -52 -36 -77 -57 -25 -20 -90 -65 -145 -99 -55 -35 -136 -87
-180 -115 -127 -82 -415 -235 -441 -235 -7 0 -14 -4 -16 -8 -4 -12 -257 -133
-343 -164 -374 -137 -540 -184 -820 -230 -163 -26 -525 -37 -604 -18 -25 7
-71 17 -101 24 -68 16 -203 77 -237 108 -56 50 -103 104 -103 118 0 6 -4 10
-8 10 -17 0 -41 75 -51 155 -11 92 2 282 24 330 7 17 19 48 26 69 6 22 24 60
39 85 14 26 37 69 51 96 13 28 54 87 92 133 39 47 65 87 61 94 -4 7 -3 8 4 4
7 -4 31 12 56 36 69 67 97 89 149 117 87 46 103 56 135 79 35 25 42 61 17 82
-16 13 -60 10 -115 -10 -68 -25 -240 -111 -240 -120 0 -6 -5 -10 -11 -10 -11
0 -91 -45 -144 -80 -68 -46 -86 -61 -150 -125 -109 -108 -153 -178 -207 -325
-33 -93 -33 -262 1 -370 13 -41 30 -84 38 -95 7 -11 13 -26 13 -35 0 -8 15
-38 33 -65 17 -28 39 -63 47 -79 24 -46 179 -196 258 -250 107 -72 136 -88
283 -155 65 -30 138 -44 381 -70 119 -13 419 -14 513 -1 39 6 135 17 215 25
80 8 170 22 200 30 30 8 67 15 83 15 15 0 44 7 65 16 20 8 62 21 92 29 30 7
82 21 115 30 33 9 96 27 140 39 44 12 85 24 90 28 6 3 26 9 45 13 19 4 44 14
55 21 12 8 61 27 109 44 48 17 113 43 144 59 168 83 295 151 358 194 40 26 76
47 81 47 5 0 20 11 33 25 13 14 29 25 36 25 7 0 17 6 21 13 4 6 17 18 28 25
60 37 81 55 145 117 39 37 77 76 84 87 7 10 33 40 58 66 24 26 65 74 91 107
26 33 53 67 60 75 29 34 78 117 83 140 3 14 10 33 15 44 15 26 1 156 -17 163
-8 3 -14 12 -14 21 0 15 -32 62 -75 108 -13 14 -27 44 -30 67 -13 73 -52 147
-107 199 -28 26 -59 48 -68 48 -9 0 -25 9 -35 20 -23 26 -109 57 -204 75 -42
8 -98 19 -126 24 -27 6 -112 15 -189 20 -76 5 -143 14 -149 20 -12 12 35 25
148 41 44 7 98 18 120 26 23 8 51 14 63 14 12 0 48 9 79 19 32 10 83 26 113
36 235 70 477 206 617 346 147 145 199 287 174 477 -6 49 -20 110 -31 134 -11
24 -20 49 -20 57 0 8 -6 22 -14 30 -15 16 -56 126 -56 148 0 7 -10 38 -21 69
-37 98 -141 190 -279 248 -36 15 -84 36 -108 47 -23 10 -50 19 -60 19 -9 0
-39 11 -67 25 -27 13 -59 25 -70 25 -22 0 -125 37 -137 49 -5 4 24 40 63 81
145 152 168 198 153 305 -6 48 -29 79 -96 132 -26 19 -141 62 -197 73 -66 12
-76 12 -126 -4z"/>
<path d="M11920 5643 c-51 -43 -239 -230 -285 -283 -67 -77 -113 -141 -131
-180 -4 -8 -17 -26 -30 -40 -45 -50 -194 -344 -194 -384 0 -9 -4 -16 -9 -16
-5 0 -11 -10 -14 -22 -3 -13 -12 -48 -20 -79 -9 -30 -17 -66 -19 -80 -2 -13
-8 -31 -13 -39 -5 -8 -11 -54 -13 -102 -5 -99 10 -138 51 -138 50 0 63 24 72
128 8 97 52 322 65 332 4 3 24 54 44 115 21 60 55 139 75 175 48 88 161 258
196 295 15 17 40 47 55 67 32 44 152 179 193 218 19 17 28 35 25 49 -3 20 -5
20 -48 -16z"/>
<path d="M7663 5453 c-12 -27 -30 -70 -41 -98 -11 -27 -43 -102 -72 -165 -28
-63 -62 -144 -74 -180 -31 -87 -171 -368 -198 -397 -12 -13 -32 -23 -44 -23
-13 0 -26 -4 -29 -10 -4 -7 46 -10 142 -9 92 0 140 4 128 9 -11 5 -30 9 -42 9
-13 1 -30 12 -39 25 -13 21 -14 33 -4 78 16 75 60 161 90 175 27 14 156 17
287 7 l82 -7 35 -83 c37 -86 45 -146 23 -176 -7 -9 -31 -20 -52 -25 -31 -6 -9
-9 100 -13 77 -3 163 -3 190 -1 l50 4 -40 13 c-21 8 -49 23 -60 34 -29 27 -98
169 -185 380 -40 96 -76 180 -80 185 -4 6 -20 42 -35 80 -42 109 -99 235 -106
235 -3 0 -15 -21 -26 -47z m26 -203 c7 -17 30 -72 51 -123 21 -51 51 -116 66
-145 22 -40 26 -55 16 -61 -21 -13 -332 -14 -332 0 0 6 18 50 41 98 22 47 50
111 61 141 12 30 29 67 39 81 10 14 16 29 12 33 -3 3 2 6 13 6 12 0 24 -12 33
-30z"/>
<path d="M13197 5256 c-136 -40 -237 -120 -290 -233 -24 -52 -31 -81 -31 -123
2 -109 79 -215 210 -290 l79 -44 133 -4 c119 -4 141 -2 195 18 98 35 97 33 97
182 0 71 5 138 10 149 10 18 7 19 -67 19 -69 0 -75 -1 -57 -14 17 -13 19 -29
22 -155 l3 -140 -33 -18 c-27 -15 -56 -18 -153 -18 -106 0 -126 3 -168 24 -56
27 -114 99 -143 176 -29 76 -26 223 5 293 28 63 86 115 150 136 67 22 178 30
239 17 67 -14 148 -64 156 -96 12 -48 26 -24 26 44 0 76 -10 93 -34 59 l-16
-22 -62 22 c-81 28 -207 36 -271 18z"/>
<path d="M9684 5109 c-44 -85 -88 -173 -98 -196 -67 -152 -146 -290 -176 -310
l-33 -23 77 0 c73 0 100 11 55 23 -26 7 -23 25 26 132 l34 75 168 0 169 0 32
-75 c38 -88 42 -135 12 -135 -12 0 -20 -7 -20 -16 0 -13 7 -15 31 -10 17 3 63
6 102 6 l70 0 -26 21 c-23 17 -98 158 -175 329 -11 25 -54 110 -95 189 l-75
143 -78 -153z m120 -134 c36 -69 66 -130 66 -135 0 -6 -55 -10 -140 -10 -77 0
-140 3 -140 6 0 3 27 60 60 127 50 100 72 135 87 137 1 0 31 -56 67 -125z"/>
<path d="M8338 5234 c22 -15 22 -16 22 -323 0 -225 -3 -310 -12 -319 -9 -9 -4
-12 25 -12 34 0 37 2 27 19 -6 12 -10 118 -10 275 l0 256 23 0 c24 0 40 -26
250 -413 46 -85 74 -127 84 -125 17 4 32 29 69 118 15 36 51 106 79 155 29 50
73 129 99 178 73 136 76 130 76 -168 l0 -256 -26 -24 -27 -25 97 0 c57 0 96 4
96 10 0 6 -7 10 -15 10 -30 0 -35 52 -35 328 0 223 3 282 15 305 l14 28 -61
-3 -62 -3 -55 -106 c-31 -58 -85 -159 -121 -225 -35 -65 -73 -137 -85 -159
-31 -62 -53 -58 -94 17 -18 35 -61 113 -95 173 -34 61 -69 124 -78 140 -10 17
-33 60 -53 98 l-35 67 -67 0 c-64 0 -66 -1 -45 -16z"/>
<path d="M10337 5213 c-6 -51 4 -59 28 -23 l20 30 138 2 c246 4 231 5 235 -15
2 -11 -34 -64 -95 -140 -170 -211 -386 -472 -396 -478 -21 -14 59 -20 286 -19
256 0 337 6 342 24 2 6 6 24 10 41 l7 30 -25 -27 c-32 -34 -39 -36 -233 -42
-178 -6 -264 0 -264 19 0 14 101 151 163 221 36 40 297 358 330 402 7 9 -47
12 -266 12 l-275 0 -5 -37z"/>
<path d="M12028 5220 l42 -30 0 -279 c0 -154 -3 -286 -6 -295 -3 -9 -12 -16
-19 -16 -8 0 -17 -4 -20 -10 -4 -6 19 -10 62 -10 56 1 64 3 48 12 -11 6 -23
16 -27 22 -4 6 -8 118 -8 249 l0 237 24 0 c18 0 85 -63 276 -260 139 -143 256
-260 261 -260 5 0 9 142 9 319 0 311 1 320 20 326 40 13 18 25 -45 25 -65 0
-87 -14 -40 -26 l25 -6 0 -239 c0 -203 -2 -239 -15 -239 -13 0 -122 109 -419
418 l-90 92 -59 0 -60 0 41 -30z"/>
<path d="M15703 4265 c-12 -8 -31 -34 -43 -58 -37 -74 -93 -124 -162 -146 -77
-25 -127 -15 -333 66 -151 60 -248 94 -295 103 -25 5 -63 14 -85 19 -64 17
-153 13 -238 -11 -70 -18 -87 -28 -129 -70 -40 -40 -48 -55 -48 -84 0 -36 1
-36 31 -30 17 3 37 6 45 6 7 0 19 6 26 13 26 26 116 38 182 26 79 -15 175 -49
251 -89 101 -52 262 -120 318 -133 28 -6 97 -12 152 -12 94 1 104 3 163 35 97
52 173 154 212 285 23 77 1 114 -47 80z"/>
<path d="M7695 4146 c-118 -24 -159 -62 -243 -226 -75 -148 -95 -184 -104
-188 -8 -4 1 -102 12 -121 15 -27 -33 -112 -152 -268 -35 -45 -92 -122 -128
-172 -36 -50 -90 -121 -120 -159 -30 -37 -66 -83 -80 -102 -39 -52 -150 -182
-150 -175 0 4 -7 0 -15 -9 -8 -8 -15 -17 -15 -19 0 -6 -88 -95 -114 -115 -27
-22 -80 -26 -95 -8 -17 20 -16 142 1 201 6 22 11 43 10 47 -3 12 60 193 73
208 7 8 18 32 25 54 15 48 118 228 136 239 8 4 14 12 14 16 0 12 78 140 105
173 13 15 26 24 30 20 4 -4 5 -2 4 3 -4 12 31 68 97 155 27 36 58 82 67 103
17 36 18 41 2 72 -8 19 -32 50 -53 69 -32 31 -56 45 -122 76 -27 12 -131 12
-146 -1 -8 -6 -14 -9 -14 -6 0 11 -58 -51 -115 -123 -33 -41 -63 -77 -66 -80
-4 -3 -50 -63 -103 -135 -53 -71 -101 -136 -106 -143 -6 -7 -32 -43 -57 -80
-25 -37 -80 -112 -122 -167 -65 -87 -95 -124 -166 -207 -8 -10 -16 -21 -17
-25 -2 -5 -6 -7 -11 -5 -4 1 -6 -2 -5 -7 2 -4 -6 -17 -17 -27 -12 -11 -14 -14
-6 -9 21 13 -104 -132 -190 -221 -37 -39 -86 -82 -108 -97 l-41 -27 -16 25
c-15 22 -15 31 -3 73 31 111 193 433 238 472 9 8 17 18 17 22 -1 4 6 15 14 25
8 10 29 39 45 63 35 53 37 56 68 95 14 17 32 45 41 63 9 18 21 30 27 27 5 -4
8 -3 7 2 -3 9 25 50 65 96 145 163 148 192 35 299 -39 37 -74 65 -79 62 -5 -2
-22 2 -38 11 -34 17 -97 20 -106 5 -3 -5 -13 -10 -21 -10 -33 0 -270 -265
-347 -387 -15 -24 -32 -43 -39 -43 -6 0 -9 -3 -5 -6 3 -3 -11 -31 -32 -63 -56
-83 -65 -111 -51 -160 10 -37 8 -48 -21 -113 -17 -40 -46 -100 -64 -133 -17
-33 -42 -91 -55 -130 -12 -38 -26 -74 -30 -80 -7 -9 -44 -131 -69 -221 -14
-53 -14 -149 0 -177 47 -92 183 -138 303 -103 105 31 261 154 382 301 27 33
60 70 73 82 13 13 20 23 16 23 -4 0 10 20 31 45 22 24 73 87 114 139 46 58 82
95 94 96 13 0 17 5 13 20 -6 24 18 48 26 26 6 -16 -10 -74 -24 -90 -5 -6 -9
-20 -9 -33 0 -13 -12 -47 -26 -76 -27 -55 -29 -60 -45 -147 -27 -137 28 -261
142 -320 106 -55 255 -63 343 -18 37 19 296 258 279 258 -3 0 8 15 23 34 58
68 89 109 101 130 l12 21 1 -22 c0 -12 -5 -25 -11 -28 -6 -4 -8 -13 -5 -20 2
-7 -2 -25 -11 -41 -21 -41 -53 -145 -53 -174 0 -14 9 -44 19 -67 11 -23 16
-45 13 -49 -4 -4 -2 -4 4 -1 12 7 29 -20 25 -38 -2 -5 1 -7 5 -2 4 4 18 -2 30
-14 43 -40 175 -47 216 -11 10 8 22 31 28 51 13 41 47 131 66 176 35 83 34 81
100 185 22 36 51 86 64 113 13 26 31 55 39 65 9 10 17 23 18 29 4 21 64 103
75 103 6 0 8 3 5 7 -4 3 4 21 18 39 14 18 25 35 25 38 0 12 88 134 94 129 3
-4 6 1 6 9 0 9 24 45 53 80 28 36 61 77 73 91 11 15 67 76 123 136 133 141
203 174 236 112 12 -24 13 -46 6 -113 -8 -82 -79 -345 -107 -399 -8 -15 -14
-34 -14 -41 0 -7 -6 -25 -14 -40 -8 -14 -19 -42 -26 -62 -6 -20 -27 -65 -45
-100 -18 -35 -36 -74 -40 -87 -4 -13 -22 -55 -40 -94 -18 -38 -43 -95 -55
-125 -12 -30 -28 -70 -36 -88 -8 -18 -14 -54 -14 -80 0 -54 13 -70 96 -121 72
-44 139 -44 189 0 34 30 115 155 115 178 0 17 101 181 111 181 5 0 9 6 9 13 0
6 15 34 33 61 46 71 75 118 86 142 5 12 13 23 18 25 11 5 63 76 63 87 0 8 75
111 104 142 7 8 16 24 20 36 3 11 23 38 44 60 21 21 41 46 45 54 24 53 131
182 243 294 109 110 113 113 156 121 28 5 38 2 61 -21 42 -42 31 -117 -35
-238 -22 -39 -60 -116 -86 -171 -25 -55 -75 -154 -109 -220 -114 -216 -229
-459 -256 -540 -52 -157 -72 -374 -43 -472 26 -89 55 -141 105 -185 76 -67
127 -79 229 -58 50 11 102 50 138 104 10 16 27 41 36 55 35 52 42 71 30 83
-11 11 -40 -7 -211 -127 -35 -25 -71 -45 -82 -45 -10 0 -30 10 -45 23 -35 31
-41 90 -20 222 18 112 64 237 147 392 53 99 237 385 295 458 17 22 41 58 53
80 12 22 36 59 54 82 108 139 199 308 217 404 28 147 -1 234 -115 340 -51 49
-107 64 -230 64 -96 0 -102 -2 -147 -33 -75 -52 -318 -303 -318 -329 0 -5 -8
-15 -17 -24 -10 -8 -29 -30 -43 -49 -36 -48 -62 -80 -82 -98 -10 -9 -18 -20
-18 -24 0 -4 -29 -44 -65 -88 -36 -45 -76 -98 -89 -118 -13 -20 -37 -50 -53
-67 -26 -27 -28 -28 -31 -9 -2 11 11 58 28 105 18 46 38 105 45 130 7 26 20
60 29 77 17 32 22 188 10 265 -8 48 -68 108 -149 150 -55 29 -68 32 -160 32
-92 0 -104 -2 -153 -29 -30 -17 -80 -61 -120 -105 -37 -41 -79 -88 -94 -103
-14 -15 -24 -28 -22 -28 3 0 -4 -12 -15 -27 -12 -16 -28 -37 -36 -48 -9 -11
-35 -45 -58 -75 -81 -104 -181 -254 -243 -365 -9 -16 -32 -45 -50 -64 l-33
-35 30 84 c16 46 34 89 40 96 8 10 106 192 142 264 39 79 122 220 129 220 5 0
7 4 3 9 -3 5 4 16 15 24 11 7 17 16 14 19 -3 3 10 30 29 59 64 100 87 156 87
206 0 26 -4 54 -9 62 -10 16 -112 41 -161 40 -19 -1 -62 -6 -95 -13z"/>
<path d="M13581 3934 c-47 -21 -162 -98 -182 -120 -33 -38 -40 -67 -44 -172
-5 -154 -21 -299 -39 -362 -9 -30 -23 -86 -32 -125 -9 -38 -23 -79 -30 -90 -7
-11 -22 -47 -33 -80 -27 -83 -45 -126 -100 -249 -17 -37 -31 -75 -31 -82 0 -8
-21 -55 -47 -105 -27 -50 -62 -119 -79 -152 -37 -73 -79 -115 -125 -127 -19
-5 -65 -18 -104 -30 -38 -12 -95 -27 -125 -35 -66 -16 -139 -41 -198 -66 -23
-11 -47 -19 -53 -19 -6 0 -25 -6 -42 -14 -18 -7 -63 -26 -102 -41 -38 -15 -88
-36 -110 -46 -22 -10 -74 -32 -115 -50 -41 -17 -79 -35 -85 -39 -5 -4 -55 -31
-110 -60 -55 -28 -116 -60 -135 -70 -19 -11 -48 -30 -64 -44 -16 -14 -33 -26
-38 -26 -16 0 -293 -193 -290 -202 1 -5 -2 -7 -7 -3 -11 6 -192 -125 -351
-254 -58 -47 -171 -151 -251 -231 -195 -192 -251 -282 -265 -416 -9 -88 21
-150 117 -242 131 -125 256 -192 362 -192 20 0 45 -5 55 -11 13 -8 41 -9 98
-2 127 16 211 42 340 104 66 33 124 59 128 59 5 0 35 18 67 40 32 22 63 40 68
40 5 0 11 4 13 8 2 4 17 17 34 27 63 40 149 98 164 111 8 7 42 38 75 67 33 30
87 77 121 104 65 54 249 240 333 338 29 33 76 85 105 115 68 71 136 155 136
168 0 6 6 15 13 19 40 26 295 380 354 491 18 35 33 71 33 81 0 16 21 46 81
115 23 26 32 29 77 28 131 -3 201 -109 218 -330 6 -68 11 -86 27 -97 29 -20
41 -6 57 62 7 32 16 74 21 93 5 19 9 60 9 90 -2 163 -66 270 -205 341 -40 21
-69 42 -68 50 2 21 74 182 88 199 7 8 32 51 55 95 23 44 52 90 64 102 28 28
136 242 136 269 0 11 11 31 25 44 14 13 25 32 25 42 0 17 58 150 100 228 82
155 137 492 96 591 -24 58 -47 72 -128 75 -51 3 -83 -1 -107 -12z m-805 -1859
c3 -8 -3 -29 -14 -47 -12 -18 -37 -60 -57 -93 -52 -87 -57 -95 -88 -129 -16
-17 -40 -49 -54 -70 -22 -35 -72 -97 -160 -201 -50 -59 -216 -251 -267 -308
-62 -72 -225 -237 -232 -237 -3 0 -32 -26 -64 -59 -33 -32 -97 -89 -142 -127
-46 -37 -103 -86 -128 -109 -86 -76 -142 -118 -188 -143 -26 -14 -65 -38 -86
-53 -22 -16 -45 -29 -50 -29 -6 0 -24 -7 -41 -16 -16 -8 -73 -34 -125 -56 -85
-37 -104 -41 -180 -42 -70 -1 -90 2 -112 19 -94 71 -73 249 53 445 16 25 32
52 35 60 34 74 475 500 600 580 13 8 48 32 79 52 94 64 158 104 215 135 199
110 242 131 378 194 34 16 90 42 125 58 34 16 94 41 132 56 39 14 93 36 120
49 42 19 213 80 238 85 4 0 10 -6 13 -14z"/>
<path d="M14485 3852 c-55 -18 -124 -86 -117 -115 2 -5 -2 -6 -7 -3 -14 9
-165 -160 -216 -243 -5 -9 -24 -34 -41 -56 -17 -22 -51 -69 -76 -105 -44 -63
-45 -67 -40 -128 3 -43 0 -75 -11 -100 -8 -20 -28 -77 -43 -127 -15 -49 -35
-117 -45 -150 -28 -89 -35 -227 -16 -295 9 -30 23 -91 32 -134 23 -113 67
-173 160 -219 98 -49 171 -62 265 -50 89 12 147 38 240 107 63 46 180 181 180
207 0 5 4 9 9 9 11 0 137 161 296 377 74 102 101 145 110 175 4 13 13 30 19
38 27 33 56 93 56 115 0 32 -10 55 -24 55 -17 0 -58 -46 -90 -100 -14 -25 -41
-62 -58 -83 -38 -44 -91 -108 -185 -228 -63 -79 -205 -241 -228 -260 -5 -4
-53 -46 -105 -92 -146 -129 -238 -167 -303 -124 -46 30 -59 70 -59 180 0 100
31 263 57 297 7 8 24 51 39 95 16 44 43 106 62 138 19 32 34 61 34 65 0 18
121 205 167 257 29 33 53 65 53 70 0 6 52 63 115 129 143 148 144 154 48 218
-100 67 -152 88 -209 87 -27 -1 -58 -4 -69 -7z"/>
</g>
</svg>
