<svg width="37" height="37" viewBox="0 0 37 37" fill="none" xmlns="http://www.w3.org/2000/svg">
<path d="M18.2245 26.395L12.0137 30.1365C11.7393 30.3111 11.4524 30.3859 11.1531 30.361C10.8538 30.336 10.5919 30.2363 10.3674 30.0617C10.1429 29.8871 9.96831 29.6691 9.8436 29.4077C9.71888 29.1462 9.69394 28.8529 9.76877 28.5277L11.415 21.4562L5.91502 16.7045C5.66559 16.48 5.50995 16.2241 5.44809 15.9368C5.38623 15.6494 5.40468 15.3691 5.50346 15.0957C5.60224 14.8223 5.7519 14.5978 5.95244 14.4222C6.15298 14.2466 6.42736 14.1344 6.77557 14.0855L14.0341 13.4494L16.8402 6.78956C16.9649 6.49024 17.1585 6.26575 17.4209 6.11609C17.6833 5.96643 17.9512 5.8916 18.2245 5.8916C18.4979 5.8916 18.7658 5.96643 19.0282 6.11609C19.2906 6.26575 19.4842 6.49024 19.6089 6.78956L22.415 13.4494L29.6735 14.0855C30.0227 14.1354 30.2971 14.2476 30.4967 14.4222C30.6962 14.5968 30.8459 14.8213 30.9456 15.0957C31.0454 15.3701 31.0644 15.6509 31.0025 15.9383C30.9406 16.2256 30.7845 16.481 30.5341 16.7045L25.0341 21.4562L26.6803 28.5277C26.7552 28.8519 26.7302 29.1453 26.6055 29.4077C26.4808 29.6701 26.3062 29.8881 26.0817 30.0617C25.8572 30.2353 25.5953 30.335 25.296 30.361C24.9967 30.3869 24.7098 30.3121 24.4354 30.1365L18.2245 26.395Z" fill="#E0BB46"/>
</svg>
